# xmcd
# 
# Track frame offsets:
#     150
#     17237
#     28330
#     43032
#     57205
#     73700
#     84292
#     97255
#     112520
#     126055
#     142627
#     155012
# 
# Disc length: 2274
# 
# Revision: 1
# Processed by: cddbd v1.5.2PL0 Copyright (c) Steve Scherf et al.
# Submitted via: fre:ac v1.1beta1pre5
# 
DISCID=9808e00c
DTITLE=Olivia Newton-John - Olivia Newton-John
DYEAR=0
DGENRE=
TTITLE0=Me And Bobby McGee
TTITLE1=If
TTITLE2=Banks Of Ohio
TTITLE3=In A Station
TTITLE4=Love Song
TTITLE5=Help Me Make It Through The Night
TTITLE6=If Not For You
TTITLE7=Where Are You Going To My Love
TTITLE8=Lullaby
TTITLE9=If You Could Read My Mind
TTITLE10=If I Gotta Leave
TTITLE11=No Regrets
EXTD=
EXTT0=
EXTT1=
EXTT2=
EXTT3=
EXTT4=
EXTT5=
EXTT6=
EXTT7=
EXTT8=
EXTT9=
EXTT10=
EXTT11=
PLAYORDER=
